# xmcd
#
# Track frame offsets: 
#        150
#        41154
#        62190
#        73834
#        92249
#        115501
#        143427
#        162549
#        180749
#        197703
#        207327
#        230637
#
# Disc length: 3552 seconds
#
# Revision: 0
# Processed by: cddbd v1.5.2PL0 Copyright (c) Steve Scherf et al.
# Submitted via: ExactAudioCopy v0.95b4
#
DISCID=b20dde0c
DTITLE=The Leroys - Live at Montreal Jazz Fest 2001
DYEAR=2001
DGENRE=Blues
TTITLE0=The Scratch_I'll Go Crazy_Ain't That A Groove
TTITLE1=Ooh Poo Pah Doo
TTITLE2=Young Blood
TTITLE3=Walking The Dog
TTITLE4=She's Looking Good
TTITLE5=Mustang Sally
TTITLE6=Don't Let The Green Grass Fool You
TTITLE7=Let The Good Times Roll
TTITLE8=Cold Sweat
TTITLE9=I Feel Good
TTITLE10=Chain Of Fool
TTITLE11=What'd I Say
EXTD=
EXTT0=
EXTT1=
EXTT2=
EXTT3=
EXTT4=
EXTT5=
EXTT6=
EXTT7=
EXTT8=
EXTT9=
EXTT10=
EXTT11=
PLAYORDER=
